<?xml version="1.0" encoding="UTF-8" standalone="no"?>
<!-- Created with Inkscape (http://www.inkscape.org/) -->

<svg
   width="13440"
   height="1080"
   viewBox="0 0 3556 285.75"
   version="1.1"
   id="svg5"
   sodipodi:docname="background.svg"
   inkscape:version="1.1 (c68e22c387, 2021-05-23)"
   xmlns:inkscape="http://www.inkscape.org/namespaces/inkscape"
   xmlns:sodipodi="http://sodipodi.sourceforge.net/DTD/sodipodi-0.dtd"
   xmlns="http://www.w3.org/2000/svg"
   xmlns:svg="http://www.w3.org/2000/svg">
  <sodipodi:namedview
     id="namedview9"
     pagecolor="#505050"
     bordercolor="#eeeeee"
     borderopacity="1"
     inkscape:pageshadow="0"
     inkscape:pageopacity="0"
     inkscape:pagecheckerboard="0"
     showgrid="true"
     inkscape:zoom="0.044194176"
     inkscape:cx="2664.4028"
     inkscape:cy="1309.1054"
     inkscape:window-width="1920"
     inkscape:window-height="1051"
     inkscape:window-x="-9"
     inkscape:window-y="-9"
     inkscape:window-maximized="1"
     inkscape:current-layer="layer4"
     width="3840px"
     inkscape:rotation="-4">
    <inkscape:grid
       type="xygrid"
       id="grid31897" />
  </sodipodi:namedview>
  <defs
     id="defs2">
    <rect
       x="994.04303"
       y="620.07349"
       width="141.19508"
       height="76.274963"
       id="rect29129" />
    <rect
       x="988.36554"
       y="621.06091"
       width="627.97253"
       height="305.09985"
       id="rect13119" />
  </defs>
  <g
     id="layer2" />
  <text
     xml:space="preserve"
     style="font-style:normal;font-variant:normal;font-weight:bold;font-stretch:normal;font-size:10.5833px;line-height:1.25;font-family:'Tempus Sans ITC';-inkscape-font-specification:'Tempus Sans ITC Bold';stroke-width:0.264583"
     x="148.16667"
     y="444.5"
     id="text45641"><tspan
       sodipodi:role="line"
       id="tspan45639"
       style="font-style:normal;font-variant:normal;font-weight:bold;font-stretch:normal;font-family:'Tempus Sans ITC';-inkscape-font-specification:'Tempus Sans ITC Bold';stroke-width:0.264583"
       x="148.16667"
       y="444.5" /></text>
  <g
     inkscape:groupmode="layer"
     id="layer3"
     inkscape:label="Layer 1">
    <path
       style="fill:#0072b2;fill-opacity:1;stroke:#0072b2;stroke-width:0.313059px;stroke-linecap:butt;stroke-linejoin:miter;stroke-opacity:1"
       d="M 0,0 C 3556,0 3556,0 3556,0 V 285.75 H 0 Z"
       id="path9954" />
  </g>
  <g
     inkscape:groupmode="layer"
     id="layer4"
     inkscape:label="Layer 2"
     style="display:inline">
    <g
       id="layer1">
      <path
         style="fill:#0072b2;fill-opacity:1;stroke:#0072b2;stroke-width:0.264583px;stroke-linecap:butt;stroke-linejoin:miter;stroke-opacity:1"
         d="M 111.125,0 193.675,167.74583 534.45833,0 Z"
         id="path5372" />
      <path
         style="fill:#000000;stroke:#000000;stroke-width:0.264583px;stroke-linecap:butt;stroke-linejoin:miter;stroke-opacity:1"
         d="M 251.35416,285.75 C 111.125,0 111.125,0 111.125,0 H 0 v 285.75 z"
         id="path15008" />
      <path
         style="fill:#e54875;fill-opacity:1;stroke:none;stroke-width:0.264583px;stroke-linecap:butt;stroke-linejoin:miter;stroke-opacity:1"
         d="M 251.35416,285.75 C 246.0625,275.16666 246.0625,275.16666 246.0625,275.16666 L 804.33332,0 v 285.75 z"
         id="path15175" />
    </g>
    <path
       style="fill:#000000;stroke:#000000;stroke-width:0.264583px;stroke-linecap:butt;stroke-linejoin:miter;stroke-opacity:1"
       d="M 193.675,167.74583 246.06249,275.16666 804.33331,5e-6 H 534.45832 L 193.675,167.74583"
       id="path1031" />
    <text
       xml:space="preserve"
       style="font-weight:bold;font-size:108.495px;line-height:1.25;font-family:'Roboto Condensed';-inkscape-font-specification:'Roboto Condensed,  Bold';fill:#0072b2;fill-opacity:1;stroke:#0072b2;stroke-width:2.71238;stroke-opacity:1"
       x="93.334862"
       y="321.60541"
       id="text3686"
       transform="rotate(-26.58054)"><tspan
         sodipodi:role="line"
         id="tspan3684"
         style="fill:#0072b2;fill-opacity:1;stroke:#0072b2;stroke-width:2.71238;stroke-opacity:1"
         x="93.334862"
         y="321.60541">BORIS</tspan></text>
    <text
       xml:space="preserve"
       style="font-style:normal;font-variant:normal;font-weight:bold;font-stretch:normal;font-size:36.1018px;line-height:1.25;font-family:'Roboto Condensed';-inkscape-font-specification:'Roboto Condensed, Bold';font-variant-ligatures:normal;font-variant-caps:normal;font-variant-numeric:normal;font-variant-east-asian:normal;fill:#0072b2;fill-opacity:1;stroke:#0072b2;stroke-width:0.902544;stroke-opacity:1"
       x="98.15377"
       y="353.2052"
       id="text3686-0"
       transform="rotate(-26.58054)"><tspan
         sodipodi:role="line"
         id="tspan11799"
         x="98.15377"
         y="353.2052"
         style="stroke-width:0.902544">VAN MAAREN</tspan></text>
    <path
       style="fill:#e54875;fill-opacity:1;stroke:#e54875;stroke-width:0.264583px;stroke-linecap:butt;stroke-linejoin:miter;stroke-opacity:1"
       d="M 804.33332,0 C 1016,285.75 1016,285.75 1016,285.75 H 804.33332 Z"
       id="path7145" />
    <path
       style="fill:#e54875;fill-opacity:1;stroke:#e54875;stroke-width:0.264583px;stroke-linecap:butt;stroke-linejoin:miter;stroke-opacity:1"
       d="M 1862.6667,285.75 C 1651.0001,0 1651.0001,0 1651.0001,0 h 211.6666 z"
       id="path7145-9" />
    <path
       style="fill:#000000;fill-opacity:1;stroke:#000000;stroke-width:0.264583px;stroke-linecap:butt;stroke-linejoin:miter;stroke-opacity:1"
       d="M 804.33332,0 C 1016,0 1016,0 1016,0 v 285.75 z"
       id="path11370" />
    <path
       style="fill:#000000;fill-opacity:1;stroke:#000000;stroke-width:0.264583px;stroke-linecap:butt;stroke-linejoin:miter;stroke-opacity:1"
       d="m 1227.5364,286.01856 c -211.6667,0 -211.6667,0 -211.6667,0 V 0.26855562 Z"
       id="path11370-5" />
    <path
       style="fill:#0072b2;fill-opacity:1;stroke:#0072b2;stroke-width:0.264583px;stroke-linecap:butt;stroke-linejoin:miter;stroke-opacity:1"
       d="m 1016,-5.0000001e-6 c 211.6667,0 211.6667,0 211.6667,0 V 285.75 Z"
       id="path11370-8" />
    <path
       style="fill:#0072b2;fill-opacity:1;stroke:#0072b2;stroke-width:0.264583px;stroke-linecap:butt;stroke-linejoin:miter;stroke-opacity:1"
       d="m 1439.2031,286.01856 c -211.6667,0 -211.6667,0 -211.6667,0 V 0.26855 Z"
       id="path11370-5-9" />
    <path
       style="fill:#0072b2;fill-opacity:1;stroke:#0072b2;stroke-width:0.264583px;stroke-linecap:butt;stroke-linejoin:miter;stroke-opacity:1"
       d="m 1227.7969,-0.268555 c 211.6667,0 211.6667,0 211.6667,0 V 285.48145 Z"
       id="path11370-8-4" />
    <path
       style="fill:#0072b2;fill-opacity:1;stroke:#0072b2;stroke-width:0.264583px;stroke-linecap:butt;stroke-linejoin:miter;stroke-opacity:1"
       d="m 1651,285.75001 c -211.6667,0 -211.6667,0 -211.6667,0 V 0 Z"
       id="path11370-5-9-0" />
    <path
       style="fill:#000000;fill-opacity:1;stroke:#000000;stroke-width:0.264583px;stroke-linecap:butt;stroke-linejoin:miter;stroke-opacity:1"
       d="m 1439.4636,-0.268561 c 211.6667,0 211.6667,0 211.6667,0 V 285.48144 Z"
       id="path11370-7" />
    <path
       style="fill:#000000;fill-opacity:1;stroke:#000000;stroke-width:0.264583px;stroke-linecap:butt;stroke-linejoin:miter;stroke-opacity:1"
       d="M 1862.6667,285.75 C 1651,285.75 1651,285.75 1651,285.75 V -5.0000001e-6 Z"
       id="path11370-5-7" />
    <path
       style="fill:#e54875;fill-opacity:1;stroke:#e54875;stroke-width:0.264583px;stroke-linecap:butt;stroke-linejoin:miter;stroke-opacity:1"
       d="M 1862.6666,0 H 2032 v 285.75 h -169.3334 z"
       id="path31377" />
    <path
       style="display:inline;fill:#e54875;fill-opacity:1;stroke:#e54875;stroke-width:0.264583px;stroke-linecap:butt;stroke-linejoin:miter;stroke-opacity:1"
       d="m 2032,0 c 211.6667,285.75 211.6667,285.75 211.6667,285.75 H 2032 Z"
       id="path7145-3" />
    <path
       style="display:inline;fill:#e54875;fill-opacity:1;stroke:#e54875;stroke-width:0.264583px;stroke-linecap:butt;stroke-linejoin:miter;stroke-opacity:1"
       d="m 3090.4635,285.48145 c -211.6666,-285.75 -211.6666,-285.75 -211.6666,-285.75 h 211.6666 z"
       id="path7145-9-7" />
    <path
       style="display:inline;fill:#e54875;fill-opacity:1;stroke:#e54875;stroke-width:0.264583px;stroke-linecap:butt;stroke-linejoin:miter;stroke-opacity:1"
       d="M 3259.6667,7e-6 C 3471.3333,285.75 3471.3333,285.75 3471.3333,285.75 h -211.6666 z"
       id="path7145-9-7-4" />
    <path
       style="display:inline;fill:#000000;fill-opacity:1;stroke:#000000;stroke-width:0.264583px;stroke-linecap:butt;stroke-linejoin:miter;stroke-opacity:1"
       d="m 2032,0 c 211.6667,0 211.6667,0 211.6667,0 v 285.75 z"
       id="path11370-0" />
    <path
       style="display:inline;fill:#000000;fill-opacity:1;stroke:#000000;stroke-width:0.264583px;stroke-linecap:butt;stroke-linejoin:miter;stroke-opacity:1"
       d="m 2455.2031,286.01856 c -211.6668,0 -211.6668,0 -211.6668,0 V 0.268556 Z"
       id="path11370-5-2" />
    <path
       style="display:inline;fill:#0072b2;fill-opacity:1;stroke:#0072b2;stroke-width:0.264583px;stroke-linecap:butt;stroke-linejoin:miter;stroke-opacity:1"
       d="m 2243.6667,-5e-6 c 211.6666,0 211.6666,0 211.6666,0 V 285.75 Z"
       id="path11370-8-3" />
    <path
       style="display:inline;fill:#0072b2;fill-opacity:1;stroke:#0072b2;stroke-width:0.264583px;stroke-linecap:butt;stroke-linejoin:miter;stroke-opacity:1"
       d="m 2666.9999,285.75001 c -211.6666,0 -211.6666,0 -211.6666,0 V 0 Z"
       id="path11370-5-9-4" />
    <path
       style="display:inline;fill:#0072b2;fill-opacity:1;stroke:#0072b2;stroke-width:0.264583px;stroke-linecap:butt;stroke-linejoin:miter;stroke-opacity:1"
       d="m 2455.5938,-0.537105 c 211.6667,0 211.6667,0 211.6667,0 V 285.2129 Z"
       id="path11370-8-4-0" />
    <path
       style="display:inline;fill:#0072b2;fill-opacity:1;stroke:#0072b2;stroke-width:0.264583px;stroke-linecap:butt;stroke-linejoin:miter;stroke-opacity:1"
       d="m 2878.7969,285.48146 c -211.6667,0 -211.6667,0 -211.6667,0 V -0.26855 Z"
       id="path11370-5-9-0-5" />
    <path
       style="display:inline;fill:#000000;fill-opacity:1;stroke:#000000;stroke-width:0.264583px;stroke-linecap:butt;stroke-linejoin:miter;stroke-opacity:1"
       d="m 2667.2605,-0.537111 c 211.6667,0 211.6667,0 211.6667,0 V 285.21289 Z"
       id="path11370-7-5" />
    <path
       style="display:inline;fill:#000000;fill-opacity:1;stroke:#000000;stroke-width:0.264583px;stroke-linecap:butt;stroke-linejoin:miter;stroke-opacity:1"
       d="m 3090.4635,285.48145 c -211.6666,0 -211.6666,0 -211.6666,0 V -0.268555 Z"
       id="path11370-5-7-0" />
    <path
       style="display:inline;fill:#000000;fill-opacity:1;stroke:#000000;stroke-width:0.264583px;stroke-linecap:butt;stroke-linejoin:miter;stroke-opacity:1"
       d="m 3259.7969,-0.268563 c 211.6667,0 211.6667,0 211.6667,0 V 285.48144 Z"
       id="path11370-7-5-4" />
    <path
       style="display:inline;fill:#e54875;fill-opacity:1;stroke:#e54875;stroke-width:0.264583px;stroke-linecap:butt;stroke-linejoin:miter;stroke-opacity:1"
       d="m 3090.4635,-0.26855 h 169.3334 v 285.75 h -169.3334 z"
       id="path31377-6" />
    <path
       style="fill:#000000;stroke:#000000;stroke-width:0.264583px;stroke-linecap:butt;stroke-linejoin:miter;stroke-opacity:1;fill-opacity:1"
       d="m 3556,0 c -84.6667,0 -84.6667,0 -84.6667,0 V 285.75 H 3556 Z"
       id="path259" />
  </g>
</svg>
